<mxfile host="app.diagrams.net" modified="2022-12-23T10:14:49.468Z" agent="5.0 (Windows)" version="20.7.4" etag="_90djWiUA1oRfqrSFg_Q" type="github">
  <diagram id="ybnF1-MVuXjFzrns_gzO" name="Page-1">
    <mxGraphModel dx="2021" dy="764" grid="1" gridSize="10" guides="1" tooltips="1" connect="1" arrows="1" fold="1" page="1" pageScale="1" pageWidth="827" pageHeight="1169" math="0" shadow="0">
      <root>
        <mxCell id="0" />
        <mxCell id="1" parent="0" />
        <mxCell id="CRsnM4I-JbtB1Yq5NlvE-1" value="&lt;div align=&quot;left&quot;&gt;entité : Client&lt;/div&gt;&lt;div align=&quot;left&quot;&gt;association : Louer&lt;/div&gt;&lt;div align=&quot;left&quot;&gt;attribut : nom&lt;br&gt;&lt;/div&gt;&lt;div align=&quot;left&quot;&gt;identifiant : num&lt;br&gt;&lt;/div&gt;" style="text;strokeColor=none;align=left;fillColor=none;html=1;verticalAlign=middle;whiteSpace=wrap;rounded=0;" vertex="1" parent="1">
          <mxGeometry x="42" y="20" width="120" height="30" as="geometry" />
        </mxCell>
        <mxCell id="CRsnM4I-JbtB1Yq5NlvE-2" value="&lt;div align=&quot;left&quot;&gt;Le client loue au moins une imprimante&lt;br&gt;&lt;/div&gt;&lt;div&gt;&lt;br&gt;&lt;/div&gt;&lt;div&gt;Une imprimante est louée par un seul client&lt;br&gt;&lt;/div&gt;" style="text;strokeColor=none;align=left;fillColor=none;html=1;verticalAlign=middle;whiteSpace=wrap;rounded=0;" vertex="1" parent="1">
          <mxGeometry x="42" y="90" width="350" height="30" as="geometry" />
        </mxCell>
        <mxCell id="CRsnM4I-JbtB1Yq5NlvE-3" value="&lt;div&gt;Le dictionnaire des variables a mal été conçu&lt;/div&gt;&lt;div&gt;Plusieurs propriétés identiques&lt;/div&gt;&lt;div&gt;&lt;br&gt;&lt;/div&gt;" style="text;strokeColor=none;align=left;fillColor=none;html=1;verticalAlign=middle;whiteSpace=wrap;rounded=0;" vertex="1" parent="1">
          <mxGeometry x="42" y="180" width="348" height="30" as="geometry" />
        </mxCell>
        <mxCell id="CRsnM4I-JbtB1Yq5NlvE-4" value="imprimante" style="swimlane;fontStyle=0;childLayout=stackLayout;horizontal=1;startSize=26;fillColor=none;horizontalStack=0;resizeParent=1;resizeParentMax=0;resizeLast=0;collapsible=1;marginBottom=0;" vertex="1" parent="1">
          <mxGeometry x="380" y="308" width="140" height="130" as="geometry" />
        </mxCell>
        <mxCell id="CRsnM4I-JbtB1Yq5NlvE-5" value="imp_num" style="text;strokeColor=none;fillColor=none;align=left;verticalAlign=top;spacingLeft=4;spacingRight=4;overflow=hidden;rotatable=0;points=[[0,0.5],[1,0.5]];portConstraint=eastwest;fontStyle=4" vertex="1" parent="CRsnM4I-JbtB1Yq5NlvE-4">
          <mxGeometry y="26" width="140" height="26" as="geometry" />
        </mxCell>
        <mxCell id="CRsnM4I-JbtB1Yq5NlvE-6" value="imp_marque" style="text;strokeColor=none;fillColor=none;align=left;verticalAlign=top;spacingLeft=4;spacingRight=4;overflow=hidden;rotatable=0;points=[[0,0.5],[1,0.5]];portConstraint=eastwest;" vertex="1" parent="CRsnM4I-JbtB1Yq5NlvE-4">
          <mxGeometry y="52" width="140" height="26" as="geometry" />
        </mxCell>
        <mxCell id="CRsnM4I-JbtB1Yq5NlvE-7" value="imp_modele" style="text;strokeColor=none;fillColor=none;align=left;verticalAlign=top;spacingLeft=4;spacingRight=4;overflow=hidden;rotatable=0;points=[[0,0.5],[1,0.5]];portConstraint=eastwest;" vertex="1" parent="CRsnM4I-JbtB1Yq5NlvE-4">
          <mxGeometry y="78" width="140" height="26" as="geometry" />
        </mxCell>
        <mxCell id="CRsnM4I-JbtB1Yq5NlvE-19" value="imp_date" style="text;strokeColor=none;fillColor=none;align=left;verticalAlign=top;spacingLeft=4;spacingRight=4;overflow=hidden;rotatable=0;points=[[0,0.5],[1,0.5]];portConstraint=eastwest;" vertex="1" parent="CRsnM4I-JbtB1Yq5NlvE-4">
          <mxGeometry y="104" width="140" height="26" as="geometry" />
        </mxCell>
        <mxCell id="CRsnM4I-JbtB1Yq5NlvE-8" value="Client" style="swimlane;fontStyle=0;childLayout=stackLayout;horizontal=1;startSize=26;fillColor=none;horizontalStack=0;resizeParent=1;resizeParentMax=0;resizeLast=0;collapsible=1;marginBottom=0;" vertex="1" parent="1">
          <mxGeometry x="-50" y="270" width="140" height="206" as="geometry" />
        </mxCell>
        <mxCell id="CRsnM4I-JbtB1Yq5NlvE-9" value="cl_num&#xa;" style="text;strokeColor=none;fillColor=none;align=left;verticalAlign=top;spacingLeft=4;spacingRight=4;overflow=hidden;rotatable=0;points=[[0,0.5],[1,0.5]];portConstraint=eastwest;fontStyle=4" vertex="1" parent="CRsnM4I-JbtB1Yq5NlvE-8">
          <mxGeometry y="26" width="140" height="26" as="geometry" />
        </mxCell>
        <mxCell id="CRsnM4I-JbtB1Yq5NlvE-10" value="cl_nom" style="text;strokeColor=none;fillColor=none;align=left;verticalAlign=top;spacingLeft=4;spacingRight=4;overflow=hidden;rotatable=0;points=[[0,0.5],[1,0.5]];portConstraint=eastwest;" vertex="1" parent="CRsnM4I-JbtB1Yq5NlvE-8">
          <mxGeometry y="52" width="140" height="26" as="geometry" />
        </mxCell>
        <mxCell id="CRsnM4I-JbtB1Yq5NlvE-11" value="cl_prenom" style="text;strokeColor=none;fillColor=none;align=left;verticalAlign=top;spacingLeft=4;spacingRight=4;overflow=hidden;rotatable=0;points=[[0,0.5],[1,0.5]];portConstraint=eastwest;" vertex="1" parent="CRsnM4I-JbtB1Yq5NlvE-8">
          <mxGeometry y="78" width="140" height="32" as="geometry" />
        </mxCell>
        <mxCell id="CRsnM4I-JbtB1Yq5NlvE-16" value="cl_adresse" style="text;strokeColor=none;fillColor=none;align=left;verticalAlign=top;spacingLeft=4;spacingRight=4;overflow=hidden;rotatable=0;points=[[0,0.5],[1,0.5]];portConstraint=eastwest;" vertex="1" parent="CRsnM4I-JbtB1Yq5NlvE-8">
          <mxGeometry y="110" width="140" height="32" as="geometry" />
        </mxCell>
        <mxCell id="CRsnM4I-JbtB1Yq5NlvE-17" value="cl_cp" style="text;strokeColor=none;fillColor=none;align=left;verticalAlign=top;spacingLeft=4;spacingRight=4;overflow=hidden;rotatable=0;points=[[0,0.5],[1,0.5]];portConstraint=eastwest;" vertex="1" parent="CRsnM4I-JbtB1Yq5NlvE-8">
          <mxGeometry y="142" width="140" height="32" as="geometry" />
        </mxCell>
        <mxCell id="CRsnM4I-JbtB1Yq5NlvE-18" value="cl_ville" style="text;strokeColor=none;fillColor=none;align=left;verticalAlign=top;spacingLeft=4;spacingRight=4;overflow=hidden;rotatable=0;points=[[0,0.5],[1,0.5]];portConstraint=eastwest;" vertex="1" parent="CRsnM4I-JbtB1Yq5NlvE-8">
          <mxGeometry y="174" width="140" height="32" as="geometry" />
        </mxCell>
        <mxCell id="CRsnM4I-JbtB1Yq5NlvE-12" value="technicien" style="swimlane;fontStyle=0;childLayout=stackLayout;horizontal=1;startSize=26;fillColor=none;horizontalStack=0;resizeParent=1;resizeParentMax=0;resizeLast=0;collapsible=1;marginBottom=0;" vertex="1" parent="1">
          <mxGeometry x="830" y="308" width="140" height="104" as="geometry" />
        </mxCell>
        <mxCell id="CRsnM4I-JbtB1Yq5NlvE-13" value="tech_matricule" style="text;strokeColor=none;fillColor=none;align=left;verticalAlign=top;spacingLeft=4;spacingRight=4;overflow=hidden;rotatable=0;points=[[0,0.5],[1,0.5]];portConstraint=eastwest;fontStyle=4" vertex="1" parent="CRsnM4I-JbtB1Yq5NlvE-12">
          <mxGeometry y="26" width="140" height="26" as="geometry" />
        </mxCell>
        <mxCell id="CRsnM4I-JbtB1Yq5NlvE-14" value="tech_nom" style="text;strokeColor=none;fillColor=none;align=left;verticalAlign=top;spacingLeft=4;spacingRight=4;overflow=hidden;rotatable=0;points=[[0,0.5],[1,0.5]];portConstraint=eastwest;" vertex="1" parent="CRsnM4I-JbtB1Yq5NlvE-12">
          <mxGeometry y="52" width="140" height="26" as="geometry" />
        </mxCell>
        <mxCell id="CRsnM4I-JbtB1Yq5NlvE-15" value="tech_prenom" style="text;strokeColor=none;fillColor=none;align=left;verticalAlign=top;spacingLeft=4;spacingRight=4;overflow=hidden;rotatable=0;points=[[0,0.5],[1,0.5]];portConstraint=eastwest;" vertex="1" parent="CRsnM4I-JbtB1Yq5NlvE-12">
          <mxGeometry y="78" width="140" height="26" as="geometry" />
        </mxCell>
        <mxCell id="CRsnM4I-JbtB1Yq5NlvE-22" style="rounded=0;orthogonalLoop=1;jettySize=auto;html=1;exitX=0;exitY=0.5;exitDx=0;exitDy=0;entryX=1;entryY=0.5;entryDx=0;entryDy=0;endArrow=none;endFill=0;" edge="1" parent="1" source="CRsnM4I-JbtB1Yq5NlvE-20" target="CRsnM4I-JbtB1Yq5NlvE-11">
          <mxGeometry relative="1" as="geometry" />
        </mxCell>
        <mxCell id="CRsnM4I-JbtB1Yq5NlvE-23" style="edgeStyle=none;rounded=0;orthogonalLoop=1;jettySize=auto;html=1;exitX=1;exitY=0.5;exitDx=0;exitDy=0;entryX=0;entryY=0.231;entryDx=0;entryDy=0;entryPerimeter=0;endArrow=none;endFill=0;" edge="1" parent="1" source="CRsnM4I-JbtB1Yq5NlvE-20" target="CRsnM4I-JbtB1Yq5NlvE-6">
          <mxGeometry relative="1" as="geometry" />
        </mxCell>
        <mxCell id="CRsnM4I-JbtB1Yq5NlvE-20" value="Louer" style="ellipse;whiteSpace=wrap;html=1;" vertex="1" parent="1">
          <mxGeometry x="190" y="345" width="100" height="40" as="geometry" />
        </mxCell>
        <mxCell id="CRsnM4I-JbtB1Yq5NlvE-25" style="edgeStyle=none;rounded=0;orthogonalLoop=1;jettySize=auto;html=1;exitX=1;exitY=0.5;exitDx=0;exitDy=0;entryX=0;entryY=0.231;entryDx=0;entryDy=0;entryPerimeter=0;endArrow=none;endFill=0;" edge="1" parent="1" source="CRsnM4I-JbtB1Yq5NlvE-21" target="CRsnM4I-JbtB1Yq5NlvE-14">
          <mxGeometry relative="1" as="geometry" />
        </mxCell>
        <mxCell id="CRsnM4I-JbtB1Yq5NlvE-21" value="&lt;div&gt;Intervenir&lt;/div&gt;&lt;div&gt;&lt;br&gt;&lt;/div&gt;&lt;div&gt;date_heure&lt;br&gt;&lt;/div&gt;" style="ellipse;whiteSpace=wrap;html=1;" vertex="1" parent="1">
          <mxGeometry x="610" y="330" width="140" height="70" as="geometry" />
        </mxCell>
        <mxCell id="CRsnM4I-JbtB1Yq5NlvE-24" style="edgeStyle=none;rounded=0;orthogonalLoop=1;jettySize=auto;html=1;exitX=1;exitY=0.5;exitDx=0;exitDy=0;entryX=-0.007;entryY=0.614;entryDx=0;entryDy=0;entryPerimeter=0;endArrow=none;endFill=0;" edge="1" parent="1" source="CRsnM4I-JbtB1Yq5NlvE-6" target="CRsnM4I-JbtB1Yq5NlvE-21">
          <mxGeometry relative="1" as="geometry" />
        </mxCell>
        <mxCell id="CRsnM4I-JbtB1Yq5NlvE-26" style="edgeStyle=none;rounded=0;orthogonalLoop=1;jettySize=auto;html=1;exitX=0;exitY=0.5;exitDx=0;exitDy=0;entryX=1;entryY=0.5;entryDx=0;entryDy=0;endArrow=none;endFill=0;" edge="1" parent="1" source="CRsnM4I-JbtB1Yq5NlvE-21" target="CRsnM4I-JbtB1Yq5NlvE-21">
          <mxGeometry relative="1" as="geometry" />
        </mxCell>
        <mxCell id="CRsnM4I-JbtB1Yq5NlvE-27" value="1, n" style="text;strokeColor=none;align=center;fillColor=none;html=1;verticalAlign=middle;whiteSpace=wrap;rounded=0;" vertex="1" parent="1">
          <mxGeometry x="90" y="330" width="60" height="30" as="geometry" />
        </mxCell>
        <mxCell id="CRsnM4I-JbtB1Yq5NlvE-28" value="1, 1" style="text;strokeColor=none;align=center;fillColor=none;html=1;verticalAlign=middle;whiteSpace=wrap;rounded=0;" vertex="1" parent="1">
          <mxGeometry x="330" y="330" width="60" height="30" as="geometry" />
        </mxCell>
        <mxCell id="CRsnM4I-JbtB1Yq5NlvE-29" value="1, n" style="text;strokeColor=none;align=center;fillColor=none;html=1;verticalAlign=middle;whiteSpace=wrap;rounded=0;" vertex="1" parent="1">
          <mxGeometry x="510" y="340" width="60" height="30" as="geometry" />
        </mxCell>
        <mxCell id="CRsnM4I-JbtB1Yq5NlvE-30" value="1, n" style="text;strokeColor=none;align=center;fillColor=none;html=1;verticalAlign=middle;whiteSpace=wrap;rounded=0;" vertex="1" parent="1">
          <mxGeometry x="780" y="340" width="60" height="30" as="geometry" />
        </mxCell>
        <mxCell id="CRsnM4I-JbtB1Yq5NlvE-31" value="&lt;div align=&quot;left&quot;&gt;Client (&lt;u&gt;cl_num&lt;/u&gt;, cl_nom, cl_prenom, cl_adresse, cl_cp, cl_ville)&lt;/div&gt;&lt;div&gt;&lt;br&gt;&lt;/div&gt;&lt;div&gt;imprimante (&lt;u&gt;imp_num&lt;/u&gt;, imp_marque, imp_modele, imp_date, #cl_num)&lt;/div&gt;" style="text;strokeColor=none;align=left;fillColor=none;html=1;verticalAlign=middle;whiteSpace=wrap;rounded=0;" vertex="1" parent="1">
          <mxGeometry x="90" y="520" width="470" height="30" as="geometry" />
        </mxCell>
        <mxCell id="CRsnM4I-JbtB1Yq5NlvE-32" value="technicien (&lt;u&gt;tech_matricule&lt;/u&gt;, tech_nom, tech_prenom)" style="text;strokeColor=none;align=left;fillColor=none;html=1;verticalAlign=middle;whiteSpace=wrap;rounded=0;" vertex="1" parent="1">
          <mxGeometry x="90" y="560" width="380" height="30" as="geometry" />
        </mxCell>
        <mxCell id="CRsnM4I-JbtB1Yq5NlvE-33" value="intervention (int_id, int_date_heure, #tech_matricule, #imp_num)" style="text;strokeColor=none;align=center;fillColor=none;html=1;verticalAlign=middle;whiteSpace=wrap;rounded=0;" vertex="1" parent="1">
          <mxGeometry x="90" y="590" width="360" height="30" as="geometry" />
        </mxCell>
      </root>
    </mxGraphModel>
  </diagram>
</mxfile>
